<?xml version="1.0" encoding="UTF-8"?> <svg xmlns="http://www.w3.org/2000/svg" width="215" height="50" viewBox="0 0 215 50" fill="none"><g clip-path="url(#clip0)"><path fill-rule="evenodd" clip-rule="evenodd" d="M71.5689 31.7363C71.6909 31.5532 71.813 31.3549 71.935 31.1566C72.057 30.9583 72.1791 30.76 72.3011 30.577C72.5452 30.2109 72.9723 30.0888 73.2774 30.3329C73.294 30.344 73.3273 30.3692 73.3757 30.4059C73.8598 30.7726 75.8567 32.2854 77.8536 32.2854C79.8061 32.2854 81.0874 31.0651 81.0874 29.6007C81.0874 27.8923 79.6231 26.794 76.7553 25.6347C73.8265 24.4143 71.5689 22.8889 71.5689 19.5941C71.5689 17.3365 73.2774 14.2856 77.8536 14.2856C80.7213 14.2856 82.8569 15.75 83.162 15.9941C83.4061 16.1161 83.6501 16.5432 83.345 16.9704L82.6128 18.0687C82.3688 18.4347 82.0027 18.6178 81.6366 18.3737C81.4535 18.2517 79.44 16.9704 77.7926 16.9704C75.4129 16.9704 74.5587 18.4958 74.5587 19.533C74.5587 21.1805 75.84 22.1567 78.2197 23.133C81.5146 24.4754 84.3823 26.0618 84.3823 29.5397C84.3823 32.5295 81.6976 34.9701 77.9756 34.9701C74.4977 34.9701 72.3011 33.1397 71.813 32.7125C71.7922 32.6918 71.7717 32.6716 71.7517 32.6518C71.4772 32.3811 71.2846 32.1912 71.5689 31.7363ZM100.247 15.14C100.247 14.835 100.491 14.5909 100.796 14.5909H107.325C110.864 14.5909 113.731 17.4587 113.731 20.9366C113.731 24.4755 110.864 27.4043 107.325 27.4043H103.176V34.1161C103.176 34.4212 102.931 34.6652 102.626 34.6652H100.796C100.491 34.6652 100.247 34.4212 100.247 34.1161V15.14ZM107.142 24.5365C109.094 24.5365 110.803 22.9501 110.803 20.8756C110.803 18.923 109.155 17.4587 107.142 17.4587H103.176V24.5365H107.142ZM148.388 24.5975C148.388 18.9229 143.812 14.2857 138.077 14.2857C132.341 14.2857 127.826 18.9229 127.826 24.5975C127.826 30.272 132.341 34.8482 138.077 34.8482C143.812 34.8482 148.388 30.333 148.388 24.5975ZM145.521 24.6585C145.521 28.7466 142.165 32.0414 138.077 32.0414C134.05 32.0414 130.694 28.7466 130.694 24.6585C130.694 20.6314 133.989 17.2145 138.077 17.2145C142.165 17.2145 145.521 20.5704 145.521 24.6585ZM164.253 15.14C164.253 14.835 164.497 14.5909 164.802 14.5909H166.693C166.998 14.5909 167.242 14.835 167.242 15.14V26.9772C167.242 29.8449 169.073 32.0415 172.002 32.0415C174.93 32.0415 176.822 29.8449 176.822 26.9772V15.14C176.822 14.835 177.066 14.5909 177.371 14.5909H179.263C179.568 14.5909 179.812 14.835 179.812 15.14V27.1602C179.812 31.4924 176.517 34.9093 172.002 34.9093C167.486 34.9093 164.253 31.4924 164.253 27.1602V15.14ZM197.628 14.5909C197.384 14.5909 197.14 14.835 197.14 15.14V34.1161C197.14 34.4212 197.323 34.6652 197.628 34.6652H204.218C209.77 34.6652 214.286 30.15 214.286 24.5976C214.286 19.1061 209.77 14.5909 204.218 14.5909H197.628ZM211.113 24.5976C211.113 28.8077 208.062 31.9195 203.852 31.9195H200.069V17.3366H203.852C208.062 17.3366 211.113 20.3874 211.113 24.5976Z" fill="#0A4159"></path><g clip-path="url(#clip1)"><path d="M2.97974 28.6652C4.70799 28.7248 6.13826 27.1157 6.13826 25.0299C6.13826 23.0037 4.70799 21.3946 2.97974 21.4542C1.31108 21.5138 0 23.1229 0 25.0895C0 26.9966 1.31108 28.6056 2.97974 28.6652Z" fill="#BCCBD1"></path><path d="M43.5039 13.9452C43.6231 15.9118 45.1726 17.5804 46.8413 17.64C48.5099 17.7592 49.6422 16.329 49.523 14.4815C49.3442 12.6341 47.914 11.025 46.3049 10.8462C44.6362 10.6675 43.3848 12.0381 43.5039 13.9452Z" fill="#BCCBD1"></path><path d="M4.05233 42.4909C2.50286 42.2525 1.48975 43.3252 1.84732 44.9343C2.20489 46.4241 3.63516 47.8544 5.12503 48.212C6.6745 48.5099 7.8068 47.5564 7.50882 45.9474C7.27044 44.3383 5.72098 42.7293 4.05233 42.4909Z" fill="#BCCBD1"></path><path d="M5.12456 1.8474C3.63469 2.20497 2.20442 3.63524 1.84685 5.12511C1.54888 6.67457 2.50239 7.80688 4.05186 7.5685C5.72051 7.33012 7.26997 5.78065 7.50835 4.112C7.80633 2.56254 6.73362 1.54943 5.12456 1.8474Z" fill="#BCCBD1"></path><path d="M6.49608 36.1144C6.37689 34.1478 4.82743 32.4791 3.15877 32.4195C1.49012 32.3004 0.35782 33.7306 0.536604 35.5781C0.715389 37.4255 2.14566 39.0346 3.69513 39.2133C5.36378 39.3921 6.61527 38.0214 6.49608 36.1144Z" fill="#BCCBD1"></path><path d="M47.0203 21.4542C45.2921 21.3946 43.8618 23.0037 43.8618 25.0299C43.8618 27.0561 45.2921 28.7248 47.0203 28.6652C48.689 28.6056 50.0001 26.9966 50.0001 25.0299C50.0001 23.1229 48.689 21.4542 47.0203 21.4542Z" fill="#BCCBD1"></path><path d="M13.3496 28.8437C15.3759 28.8437 17.1041 27.1751 17.1041 25.0297C17.1041 22.8843 15.4355 21.156 13.3496 21.2156C11.3234 21.2752 9.71436 22.9439 9.71436 25.0297C9.71436 27.1155 11.3234 28.8437 13.3496 28.8437Z" fill="#BCCBD1"></path><path d="M3.09916 17.6994C4.8274 17.6398 6.31727 15.9115 6.43646 14.0045C6.55565 12.0975 5.30416 10.7268 3.63551 10.9056C2.02645 11.1439 0.655771 12.753 0.417392 14.5408C0.298203 16.3883 1.4901 17.8186 3.09916 17.6994Z" fill="#BCCBD1"></path><path d="M24.9707 6.13826C27.0565 6.13826 28.6656 4.70799 28.606 2.97974C28.5464 1.31108 26.9374 0 24.9707 0C23.0041 0 21.395 1.31108 21.3354 2.97974C21.3354 4.70799 22.9445 6.13826 24.9707 6.13826Z" fill="#BCCBD1"></path><path d="M45.9473 7.56868C47.4967 7.80706 48.5098 6.73435 48.1523 5.1253C47.7947 3.63543 46.3644 2.20515 44.8745 1.84758C43.3251 1.54961 42.1928 2.50313 42.4312 4.05259C42.7291 5.72124 44.2786 7.3303 45.9473 7.56868Z" fill="#BCCBD1"></path><path d="M13.409 17.223C15.4352 17.1634 17.1634 15.4352 17.223 13.409C17.2826 11.3827 15.6736 9.89286 13.7069 10.012C11.7403 10.1312 10.1312 11.7999 10.012 13.7069C9.89286 15.7331 11.3827 17.2826 13.409 17.223Z" fill="#BCCBD1"></path><path d="M36.2936 10.0118C34.3269 9.89262 32.7179 11.4421 32.7775 13.4087C32.8371 15.4349 34.5653 17.1632 36.5915 17.2228C38.6178 17.2824 40.1076 15.6733 39.9884 13.7067C39.9289 11.7997 38.2602 10.131 36.2936 10.0118Z" fill="#BCCBD1"></path><path d="M36.5915 32.8368C34.5653 32.8964 32.8371 34.6247 32.7775 36.6509C32.7179 38.6771 34.3269 40.167 36.2936 40.1074C38.2602 39.9882 39.8693 38.3195 39.9884 36.4125C40.1076 34.3863 38.5582 32.7772 36.5915 32.8368Z" fill="#BCCBD1"></path><path d="M45.8881 42.5505C44.2194 42.7888 42.6699 44.3383 42.4316 45.9474C42.1336 47.5564 43.2659 48.5099 44.8154 48.212C46.3052 47.914 47.7355 46.4241 48.0931 44.9342C48.4506 43.3848 47.4971 42.2525 45.8881 42.5505Z" fill="#BCCBD1"></path><path d="M46.9008 32.36C45.1726 32.4791 43.6827 34.1478 43.5039 36.1144C43.3848 38.0215 44.6362 39.3921 46.3049 39.2133C47.914 38.975 49.3442 37.3659 49.523 35.5781C49.7018 33.7306 48.5099 32.3004 46.9008 32.36Z" fill="#BCCBD1"></path><path d="M36.0554 43.5638C34.0887 43.683 32.4201 45.1728 32.3009 46.9011C32.1817 48.5101 33.612 49.702 35.4594 49.5232C37.3068 49.3445 38.8563 47.9142 39.0947 46.3647C39.3331 44.6961 37.9624 43.4446 36.0554 43.5638Z" fill="#BCCBD1"></path><path d="M13.409 32.8369C11.3827 32.7773 9.89286 34.3267 10.012 36.353C10.1312 38.3196 11.7999 39.9286 13.7069 40.0478C15.6736 40.1074 17.2826 38.6176 17.223 36.6509C17.1634 34.5651 15.4352 32.8965 13.409 32.8369Z" fill="#BCCBD1"></path><path d="M14.4219 0.53636C12.5745 0.715145 11.025 2.14542 10.7867 3.69488C10.6079 5.36353 11.9786 6.61502 13.8856 6.49583C15.8522 6.37665 17.5209 4.82718 17.6401 3.15853C17.7593 1.48988 16.329 0.357576 14.4219 0.53636Z" fill="#BCCBD1"></path><path d="M24.9698 21.156C22.8244 21.156 21.0962 22.8843 21.0962 25.0893C21.0962 27.2347 22.8244 28.9629 25.0294 28.9629C27.1749 28.9629 28.9031 27.2347 28.9031 25.0297C28.9031 22.8843 27.1749 21.156 24.9698 21.156Z" fill="#BCCBD1"></path><path d="M25.0294 43.9214C23.0032 43.9214 21.3345 45.3517 21.3941 47.0799C21.4537 48.7486 23.0628 50.0596 25.0294 50.0596C26.9364 50.0596 28.5455 48.7486 28.6051 47.0799C28.6647 45.3517 27.0556 43.9214 25.0294 43.9214Z" fill="#BCCBD1"></path><path fill-rule="evenodd" clip-rule="evenodd" d="M36.6503 21.2158C34.6836 21.2158 32.9554 20.5007 31.5847 19.0704C31.2867 18.7724 31.2867 18.7724 30.9888 18.4745C29.5585 17.0442 28.8434 15.3755 28.8434 13.4089C28.7838 11.4423 29.4989 9.83323 30.81 8.64134C31.108 8.40296 31.108 8.40296 31.4059 8.10498C32.717 6.91309 34.3261 6.37674 36.1139 6.49592C38.0805 6.61511 39.4512 5.36363 39.2724 3.69497C39.0937 2.08591 37.425 0.715233 35.6372 0.476854C33.7897 0.357665 32.3594 1.48997 32.4786 3.15862C32.5978 4.76768 32.0019 6.19795 30.6908 7.38985C30.3928 7.62823 30.3928 7.62823 30.1544 7.9262C28.7838 9.17769 27.1151 9.77364 25.1485 9.77364C23.0031 9.77364 21.2748 11.3827 21.2748 13.4089C21.2748 15.4351 22.9435 17.1634 25.0889 17.1634C27.1151 17.1634 28.903 17.8785 30.3332 19.3088C30.6312 19.6068 30.6312 19.6068 30.9292 19.9047C32.3594 21.335 33.0746 23.0633 33.015 25.0895C33.015 27.1753 32.2999 28.9036 30.9292 30.3338C30.6312 30.6318 30.6312 30.6318 30.3332 30.9298C28.903 32.3601 27.1747 33.0752 25.1485 33.0156C22.9435 33.0156 21.2748 34.6842 21.2748 36.7701C21.3344 38.6771 20.6193 40.2862 19.3082 41.5376C19.0102 41.776 19.0102 41.776 18.7122 42.074C17.4012 43.2659 15.8517 43.8022 14.0043 43.6831C12.0376 43.5639 10.667 44.8154 10.8457 46.484C11.0841 48.0931 12.6932 49.4638 14.481 49.7021C16.3285 49.8809 17.7587 48.689 17.6395 47.08C17.5204 45.4709 18.1163 44.0406 19.4274 42.8487C19.7254 42.6104 19.7254 42.6104 19.9637 42.3124C21.2748 41.0609 23.0031 40.4649 24.9697 40.4649C27.0555 40.4649 28.7838 38.8559 28.8434 36.8297C28.8434 34.863 29.5585 33.1348 30.9888 31.7641C31.2867 31.4661 31.2867 31.4661 31.5847 31.1682C33.015 29.7379 34.6836 29.0227 36.6503 29.0227C38.6765 29.0227 40.3451 27.2945 40.3451 25.2087C40.2855 22.9441 38.6765 21.2158 36.6503 21.2158Z" fill="#109AAF"></path></g></g><defs><clipPath id="clip0"><rect width="214.286" height="50" fill="white"></rect></clipPath><clipPath id="clip1"><rect width="50" height="50" fill="white"></rect></clipPath></defs></svg> 